<svg width="30" height="30" viewBox="0 0 30 30" fill="none" xmlns="http://www.w3.org/2000/svg">
<g clip-path="url(#clip0_35_67)">
<path d="M14.1796 29.9999C14.1793 29.9999 14.1797 29.9999 14.1794 29.9999C11.4625 29.9999 8.79533 29.2751 6.4664 27.9039C4.20667 26.5734 2.31679 24.6712 1.00136 22.4027C0.66597 21.8244 0.713724 21.1085 1.12306 20.5789C1.53445 20.0467 2.21894 19.8189 2.86652 19.9988C3.58687 20.1987 4.33031 20.3388 5.0765 20.4154C5.57015 20.4661 5.92933 20.9074 5.8787 21.4011C5.82814 21.8948 5.38833 22.254 4.89286 22.2033C4.17222 22.1294 3.45357 22.003 2.7515 21.8271C5.19023 25.7694 9.53396 28.2025 14.1795 28.2026C17.7637 28.2026 21.1351 26.8053 23.6726 24.2678C26.2099 21.7304 27.6073 18.3591 27.6073 14.7749C27.6072 10.1292 25.1742 5.78561 21.2318 3.34688C21.5348 4.55555 21.6882 5.80225 21.6882 7.0585C21.6883 14.0176 16.9893 20.0823 10.2612 21.8069C9.78058 21.9303 9.29074 21.6403 9.16763 21.1595C9.04435 20.6787 9.33421 20.1891 9.81503 20.0658C15.7476 18.5452 19.891 13.1964 19.8909 7.05844C19.8909 5.83752 19.7269 4.6275 19.4035 3.4619C19.2237 2.81414 19.4514 2.12977 19.9836 1.71844C20.5132 1.3091 21.229 1.26147 21.8074 1.59674C24.0757 2.91229 25.9781 4.80205 27.3085 7.06178C28.6798 9.39071 29.4045 12.0578 29.4046 14.7749C29.4047 18.8392 27.8202 22.6618 24.9433 25.5387C22.0666 28.4156 18.2437 29.9999 14.1796 29.9999Z" fill="#B92126"/>
<path d="M12.3905 9.77584C12.0667 9.77584 11.7561 9.62215 11.5596 9.36486C11.2924 9.01529 10.6828 8.1416 10.289 6.98936C9.137 6.59566 8.26325 5.986 7.91327 5.71875C7.65212 5.519 7.50247 5.21625 7.50247 4.88795C7.50235 4.55965 7.652 4.25701 7.91286 4.05744C8.26296 3.7899 9.137 3.18018 10.2888 2.7866C10.6825 1.63447 11.2922 0.760664 11.5596 0.410859C11.7562 0.153691 12.0668 0 12.3905 0C12.7142 0 13.0248 0.153691 13.2213 0.411035C13.4885 0.760605 14.0982 1.63436 14.4919 2.78654C15.6437 3.18018 16.5176 3.7899 16.8676 4.05715C17.1288 4.25701 17.2784 4.55965 17.2784 4.88795C17.2784 5.21625 17.1288 5.51889 16.868 5.71846C16.5179 5.986 15.644 6.59561 14.4921 6.9893C14.0983 8.14166 13.4886 9.01529 13.2213 9.36504C13.0248 9.62221 12.7142 9.77584 12.3905 9.77584ZM9.94536 4.88795C10.3099 5.08025 10.7501 5.27121 11.2389 5.40053C11.5513 5.48309 11.7952 5.72707 11.8778 6.03949C12.0071 6.52834 12.1981 6.96879 12.3904 7.33318C12.5828 6.96867 12.7736 6.52846 12.9029 6.03961C12.9856 5.72725 13.2295 5.48326 13.5418 5.40059C14.0306 5.27127 14.471 5.08037 14.8355 4.88801C14.471 4.69559 14.0307 4.50475 13.542 4.37543C13.2295 4.29287 12.9856 4.04889 12.9029 3.73641C12.7737 3.24762 12.5827 2.80729 12.3904 2.44283C12.1981 2.80734 12.0072 3.24768 11.8778 3.73652C11.7953 4.04889 11.5513 4.29281 11.2389 4.37549C10.7501 4.50463 10.3098 4.69553 9.94536 4.88795Z" fill="#B92126"/>
<path d="M5.9891 18.3999C5.65488 18.3999 5.34686 18.2476 5.14377 17.982C4.8419 17.5869 4.14844 16.5928 3.71115 15.2842C2.4027 14.847 1.40848 14.1536 1.01361 13.8519C0.747892 13.6488 0.59549 13.3406 0.59549 13.0063C0.59549 12.6721 0.747892 12.3639 1.01373 12.1608C1.40854 11.8591 2.40276 11.1657 3.71121 10.7285C4.1485 9.41994 4.84195 8.42566 5.14365 8.03092C5.34692 7.76508 5.655 7.61279 5.98922 7.61279C6.32361 7.61279 6.63182 7.76531 6.83496 8.03121C7.13649 8.42578 7.82994 9.42018 8.26723 10.7285C9.57574 11.1658 10.57 11.8592 10.9649 12.1609C11.2307 12.3643 11.383 12.6723 11.383 13.0064C11.383 13.3405 11.2307 13.6486 10.9652 13.8517C10.5701 14.1536 9.5758 14.8471 8.26734 15.2843C7.83018 16.5926 7.1366 17.587 6.8349 17.9818C6.63176 18.2474 6.32344 18.3999 5.9891 18.3999ZM2.99602 13.0063C3.44555 13.2589 4.0169 13.5233 4.66248 13.694C4.97484 13.7766 5.21877 14.0205 5.30133 14.333C5.47207 14.9786 5.73656 15.5499 5.98904 15.9994C6.24164 15.5499 6.50596 14.9785 6.67658 14.3331C6.75926 14.0207 7.00324 13.7767 7.31555 13.6941C7.96125 13.5234 8.5326 13.259 8.98207 13.0065C8.53254 12.7539 7.96119 12.4896 7.31555 12.3188C7.00318 12.2363 6.75926 11.9923 6.67658 11.6798C6.50596 11.0343 6.24147 10.4629 5.98904 10.0134C5.73645 10.4629 5.47207 11.0343 5.30133 11.6798C5.21877 11.9922 4.97479 12.2361 4.66248 12.3188C4.01684 12.4894 3.44549 12.7538 2.99602 13.0063Z" fill="#B92126"/>
</g>
<defs>
<clipPath id="clip0_35_67">
<rect width="30" height="30" fill="white"/>
</clipPath>
</defs>
</svg>
